<?xml version="1.0" encoding="UTF-8" standalone="no"?>
<!DOCTYPE svg PUBLIC "-//W3C//DTD SVG 1.1//EN" "http://www.w3.org/Graphics/SVG/1.1/DTD/svg11.dtd">
<svg xmlns="http://www.w3.org/2000/svg" xmlns:xlink="http://www.w3.org/1999/xlink" version="1.1" width="1038pt" height="599.7pt" viewBox="0 0 1038 599.7">
<g enable-background="new">
<path transform="matrix(1,0,0,-1,0,599.7)" d="M 265 599.7 L 530 449.80003 L 530 149.90003 L 265 0 L 0 149.90003 L 0 449.80003 L 265 599.7 Z " fill="#ffffff"/>
<path transform="matrix(1,0,0,-1,497,323.90003)" d="M 0 16 L 102 16 L 102 32 L 0 32 L 0 16 Z " fill="#3178c6"/>
<path transform="matrix(1,0,0,-1,32.199998,557.7)" d="M 450.5 118.29999 L 241.59999 0 L 241.59999 92 L 371.8 163.69998 L 450.5 118.29999 Z M 464.8 131.19998 L 464.8 378.39997 L 388.40003 334.3 L 388.40003 175.29999 L 464.8 131.19998 Z M 14.300003 118.29999 L 223.2 .099976 L 223.2 92.099979 L 93 163.69998 L 14.300003 118.29999 Z M 0 131.19998 L 0 378.39997 L 76.40001 334.3 L 76.40001 175.29999 L 0 131.19998 Z M 8.900002 394.39997 L 223.2 515.6 L 223.2 426.59999 L 85.90001 351.09999 L 84.8 350.49998 L 8.900002 394.39997 Z M 455.8 394.39997 L 241.59999 515.6 L 241.59999 426.59999 L 378.8 350.99998 L 379.90003 350.39997 L 455.8 394.39997 Z " fill="#8ed6fb"/>
<path transform="matrix(1,0,0,-1,127,444.7)" d="M 128.4 0 L 0 70.69998 L 0 210.59999 L 128.4 136.5 L 128.4 0 Z M 146.79999 0 L 275.2 70.599979 L 275.2 210.59999 L 146.79999 136.5 L 146.79999 0 Z M 8.600006 226.79999 L 137.6 297.69999 L 266.5 226.79999 L 137.6 152.4 L 8.600006 226.79999 Z " fill="#1c78c0"/>
<path transform="matrix(1,0,0,-1,599,518.9)" d="M 396.1289 439 L 42.871095 439 C 19.194043 439 0 419.80598 0 396.1289 L 0 42.871095 C 0 19.19403 19.194043 0 42.871095 0 L 396.1289 0 C 419.80598 0 439 19.19403 439 42.871095 L 439 396.1289 C 439 419.80598 419.80598 439 396.1289 439 Z " fill="#3178c6"/>
<path transform="matrix(1,0,0,-1,700.1758,482.4596)" d="M 170.62696 53.588884 L 170.62696 10.717789 C 177.57207 7.116608 186.06055 4.458603 195.49219 2.65802 C 204.92383 .857437 215.21289 .000015 225.50196 .000015 C 235.79102 .000015 245.22266 .943161 254.6543 2.915237 C 264.08595 4.887314 271.80274 8.145508 278.6621 12.346878 C 285.60725 16.89122 291.52345 22.63594 294.95314 30.352738 C 298.3828 38.069536 301.04084 46.643754 301.04084 57.790239 C 301.04084 65.59277 299.84043 72.36641 297.5254 78.36836 C 295.21037 84.370319 291.8664 89.51485 287.23634 93.801959 C 282.86347 98.34629 277.8047 102.376178 271.80274 105.80586 C 265.80079 109.23555 258.9414 112.83672 251.22461 116.094928 C 245.56563 118.409969 240.93555 120.63926 235.79102 122.86855 C 231.33243 125.09785 227.47403 127.32716 224.64453 129.55646 C 221.47208 131.87149 219.07129 134.27228 217.35645 136.75879 C 215.6416 139.33106 214.78418 142.16056 214.78418 145.33301 C 214.78418 148.24826 215.5473 150.90625 217.09923 153.30704 C 218.65117 155.70781 220.78615 157.67989 223.52989 159.39473 C 226.27364 161.10958 229.70333 162.39572 233.81896 163.33887 C 237.84883 164.28205 242.30744 164.71076 247.5377 164.71076 C 251.13887 164.71076 254.91153 164.44495 258.6842 163.90479 C 262.62834 163.3646 266.6582 162.53292 270.6881 161.41826 C 274.718 160.30362 278.6621 158.93172 282.69203 157.21688 C 286.46467 155.50203 289.9801 153.52997 292.98109 151.30066 L 292.98109 191.5995 C 286.46467 194.08603 279.26234 195.97237 271.54554 197.17275 C 263.82875 198.37314 255.2545 198.97333 244.96544 198.97333 C 234.67638 198.97333 225.24474 197.85868 215.8131 195.71512 C 206.38146 193.57157 198.66466 190.14188 191.80529 185.42606 C 184.86017 180.79598 179.80138 175.13701 175.51427 167.42021 C 171.48439 160.21787 169.51232 151.98662 169.51232 141.69756 C 169.51232 128.83623 173.19924 117.68974 180.6588 109.115528 C 188.03263 99.68388 199.52208 92.82451 214.09825 85.96513 C 220.01447 83.564357 225.24474 81.16356 230.38927 78.84852 C 235.5338 76.53348 239.8209 74.132709 243.2506 71.64618 C 246.93752 69.15965 249.85274 66.41591 251.82482 63.50067 C 253.96837 60.585435 255.08301 57.155748 255.08301 53.21161 C 255.08301 50.467866 254.41423 47.8956 253.11095 45.494813 C 251.80767 43.094026 249.767 41.03621 247.02326 39.321367 C 244.2795 37.60652 240.93555 36.23465 236.73419 35.20575 C 232.7043 34.26259 228.15998 33.748125 222.15802 33.748125 C 212.72638 33.748125 203.29474 35.377229 194.72052 38.635438 C 185.28888 41.893648 176.71466 46.780946 168.99787 53.21161 L 170.62696 53.588884 Z M 98.603519 159.05176 L 153.47852 159.05176 L 153.47852 194.20607 L 0 194.20607 L 0 159.05176 L 54.875 159.05176 L 54.875 2.14357 L 98.603519 2.14357 L 98.603519 159.05176 Z " fill="#ffffff" fill-rule="evenodd"/>
</g>
</svg>
